<svg version="1.2" xmlns="http://www.w3.org/2000/svg" viewBox="0 0 512 512" width="512" height="512">
	<title>kodi-svg</title>
	<style>
		.s0 { fill: #ffffff } 
		.s1 { fill: #00ff18 } 
		.s2 { fill: #17b2e7 } 
	</style>
	<path id="Forma 1" class="s0" d="m70 0h372c38.7 0 70 31.3 70 70v372c0 38.7-31.3 70-70 70h-372c-38.7 0-70-31.3-70-70v-372c0-38.7 31.3-70 70-70z"/>
	<path id="Forma 1 copy" class="s1" d="m70 0h372c38.7 0 70 31.3 70 70v372c0 38.7-31.3 70-70 70h-372c-38.7 0-70-31.3-70-70v-372c0-38.7 31.3-70 70-70z"/>
	<g>
		<path class="s2" d="m441.5 269.5l-58.5 58.4c-7 7-14.5 7-21.5 0l-60.3-60.4c-6.8-6.8-6.8-14.3 0-21.1l60.6-60.7c6.6-6.5 14.3-6.5 20.9 0l58.7 58.8c9 8.7 8.4 16.6 0 25z"/>
		<path class="s2" d="m245 441l-58.3-58.5c-7-7-7-14.4 0-21.4l60.4-60.4c6.7-6.7 14.3-6.7 21 0l60.4 60.4c6.9 6.9 7 14.5 0 21.4l-58.8 59c-8.6 8.7-16.5 7.6-24.7-0.6z"/>
		<path class="s2" d="m184 141.5c0-6.5 1.5-11.6 6.4-15.8 18.8-18.4 39-38.9 55.6-55.5 7-7 14.4-7 21.3 0l60.3 60.3c6.9 6.9 6.9 14.5 0 21.4l-134.2 134.3c-7.8 4.2-9-1.5-9.2-7.7-0.4-47.1 0.4-93.2-0.2-137z"/>
		<path class="s2" d="m136.1 319c0.1 5.2-3.7 10.9-7.7 7l-61-61c-1.1-1-1.9-2.2-2.5-3.5-0.6-1.3-0.9-2.7-0.9-4.2 0-1.5 0.3-2.9 0.9-4.2 0.6-1.3 1.4-2.5 2.5-3.5l60.2-61c5.5-5.6 8.2 1.6 8.5 6.7z"/>
	</g>
</svg>