<svg version="1.2" xmlns="http://www.w3.org/2000/svg" viewBox="0 0 512 512" width="512" height="512"><style>.a{fill:#17b2e7}</style><path class="a" d="m480.8 293l-71 70.8c-8.5 8.5-17.6 8.5-26.1 0l-73.1-73.3c-8.3-8.2-8.3-17.3 0-25.5l73.5-73.7c8-7.9 17.3-7.9 25.3 0l71.2 71.3c11 10.6 10.2 20.2 0 30.4z"/><path class="a" d="m242.4 501l-70.7-71c-8.5-8.4-8.5-17.4 0-25.9l73.2-73.3c8.2-8.1 17.4-8.1 25.5 0l73.3 73.3c8.4 8.4 8.5 17.6 0 25.9l-71.3 71.6c-10.5 10.6-20.1 9.2-30-0.7z"/><path class="a" d="m168.4 137.7c0-7.9 1.8-14.1 7.8-19.2 22.8-22.3 47.3-47.1 67.4-67.3 8.5-8.5 17.5-8.5 25.8 0l73.2 73.2c8.4 8.3 8.4 17.6 0 25.9l-162.8 162.9c-9.5 5.1-10.9-1.8-11.2-9.3-0.4-57.1 0.5-113.1-0.2-166.2z"/><path class="a" d="m110.3 353c0.1 6.3-4.5 13.2-9.3 8.5l-74-74c-1.3-1.2-2.4-2.6-3.1-4.2-0.7-1.6-1.1-3.4-1.1-5.1 0-1.8 0.4-3.5 1.1-5.1 0.7-1.6 1.8-3.1 3.1-4.3l73-74c6.7-6.8 9.9 2 10.3 8.2z"/></svg>